<svg xmlns="http://www.w3.org/2000/svg" xmlns:xlink="http://www.w3.org/1999/xlink" version="1.1" width="1000" height="1000" viewBox="0 0 1000 1000" xml:space="preserve">
<desc>Created with Fabric.js 3.5.0</desc>
<defs>
</defs>
<rect x="0" y="0" width="100%" height="100%" fill="#ffffff"/>
<g transform="matrix(0.7007 0 0 0.7007 672.672 620.3308)" id="802917">
<path style="stroke: none; stroke-width: 1; stroke-dasharray: none; stroke-linecap: butt; stroke-dashoffset: 0; stroke-linejoin: miter; stroke-miterlimit: 4; is-custom-font: none; font-file-url: none; fill: rgb(183,159,159); fill-rule: nonzero; opacity: 1;" vector-effect="non-scaling-stroke" transform=" translate(-960, -669)" d="M 1387.43181 0 L 1920 0 L 1920 1338 L 0 1338 L 0 1288.78729 C 4.31109899e-14 1292.69393 0.520280426 1296.58317 1.5471205 1300.35245 C 7.93438431 1323.79853 32.1190862 1337.62743 55.5651642 1331.24017 L 1122.64053 1040.54371 C 1157.25166 1031.11482 1184.16076 1003.86934 1193.15896 969.143748 L 1430.02508 55.0368974 C 1430.95912 51.4322777 1431.43181 47.7236694 1431.43181 44 C 1431.43181 19.699471 1411.73234 9.74691996e-15 1387.43181 1.42108547e-14 Z" stroke-linecap="round"/>
</g>
</svg>